<svg xmlns="http://www.w3.org/2000/svg" viewBox="0 0 212.07 46.19"><defs><style>.cls-1{fill:#231815;}.cls-10,.cls-11,.cls-2,.cls-3,.cls-4,.cls-5,.cls-6,.cls-7,.cls-8,.cls-9{fill:none;stroke:#dae000;stroke-linecap:round;stroke-miterlimit:10;stroke-width:5px;}.cls-2{stroke-opacity:0.59;}.cls-3{stroke-opacity:0.32;}.cls-4{stroke-opacity:0.66;}.cls-5{stroke-opacity:0.6;}.cls-6{stroke-opacity:0.48;}.cls-7{stroke-opacity:0.55;}.cls-8{stroke-opacity:0.42;}.cls-10{stroke-opacity:0.57;}.cls-11{stroke-opacity:0.54;}</style></defs><g id="レイヤー_2" data-name="レイヤー 2"><g id="mask"><path class="cls-1" d="M10.68,11,2.5,39.53Z"/><polyline class="cls-2" points="11.61 9.22 8.18 20.63 2.5 39.53"/><path class="cls-3" d="M10.68,22.25s10.71-5,11.23-9"/><path class="cls-4" d="M10.87,25.26s8.76,15.58,10.5,11.68"/><path class="cls-5" d="M36.18,23s-5-3.56-9.54,2.57.95,10,.95,10l8.59-10.33-1,12.07S48,19.39,48.25,21.39s-5,14.2-5,14.2L62.78,21.23,60.46,11s-6.6,27.34-5.58,29S55.46,17,55.46,17s15.23.29,19.15,2.27-1.42,9.91-1.42,9.91-4.69,11.94-7.11,3,4.84-11.48,4.84-11.48"/><path class="cls-6" d="M48.4,11.38s2.4,6.62,1.31,6.37"/><path class="cls-5" d="M90.63,11.38c1.33.9,18-1.35,21.38,0"/><path class="cls-7" d="M99.88,13.43,89.36,38.05Z"/><path class="cls-8" d="M109.68,22.25s-4.5-3.49-9.8,6.23,6.41,4.23,6.94,2.93,8.1-9.91,8.1-9.91"/><line class="cls-9" x1="111.5" y1="19.01" x2="108.76" y2="36.94"/><path class="cls-10" d="M112,32.94S125.89,19.66,124.43,12"/><path class="cls-7" d="M130.08,21.6s-15.65,9.81-14.51,15.16"/><line class="cls-9" x1="122.8" y1="29.18" x2="127.92" y2="37.41"/><path class="cls-11" d="M135.73,27.15s7.38-1.45,3.17-7.06-11.88,17.78-5.76,16,19.05-15,15.77-16.23,1.19,17.89,1.19,17.89"/><path class="cls-9" d="M151.68,33.34s7.24-5.24,9.32-10.87-6.78,14.89-3.13,16.09,13.68-20.12,16-17-10.2,16.06-5.67,15.66,27.65-21.78,20.63-22.93S183,37.57,183,37.57"/><path class="cls-9" d="M186.13,29.81s6.66-6,7.44-3.35-3.38,10.3-3.38,10.3"/><path class="cls-9" d="M202.19,20s-4.73,11.08-3.93,14.11,11.31-6.41,11.31-6.41"/><path class="cls-9" d="M205.75,11.06s-.43,5.53.2,6.69"/></g></g></svg>