<svg xmlns="http://www.w3.org/2000/svg" viewBox="0 0 210.7 31.64"><defs><style>.cls-1{fill:#231815;}</style></defs><g id="レイヤー_2" data-name="レイヤー 2"><g id="base"><path class="cls-1" d="M2.84,30.92a2.38,2.38,0,0,1-.75-.36.58.58,0,0,0-.4-.22c-.25,0-1-1-1-1.4a.69.69,0,0,0-.25-.5,2,2,0,0,1-.33-1.05L0,26.67A6.9,6.9,0,0,1,.36,25c.25-.79,1.66-4.75,1.8-5.11s.58-1.41.86-2.27.72-1.91.9-2.27c.29-.72.47-1.12,2.16-5.87C7.31,6.16,8.24,3.71,8.53,3.2a3.18,3.18,0,0,0,.25-.64,3.2,3.2,0,0,1,.33-.94A3.51,3.51,0,0,0,9.47.68c0-.18.1-.28.21-.28A.46.46,0,0,0,10,.18c.1-.11.18-.18.28-.18s.18.11.26.32.07.26.1.26l.11-.11a.5.5,0,0,1,.43-.22.88.88,0,0,1,.69.33.82.82,0,0,0,.47.32c.18,0,.75.61,1.22,1.3a1.13,1.13,0,0,1,.18.64l0,.47a11,11,0,0,1-.86,2.95,24.25,24.25,0,0,0-1.26,4c0,.07,0,.14,0,.14h0a1.71,1.71,0,0,0,.51-.18c.21-.14.93-.5,1.54-.82l1.66-.83A3.48,3.48,0,0,0,16.23,8a1.18,1.18,0,0,1,.47-.32,2.15,2.15,0,0,0,.54-.36A1.56,1.56,0,0,1,17.82,7,.27.27,0,0,0,18,6.84l1-.79a21.36,21.36,0,0,1,2.37-1.69c.4-.29.58-.36.72-.36a.47.47,0,0,1,.22.07.61.61,0,0,1,.29.47,1,1,0,0,0,.21.46c.07.08.15.15.15.22s-.08.14-.18.32l-.18.33c0,.07,0,.07.1.07s.15,0,.15.11a.16.16,0,0,1-.18.14.2.2,0,0,0-.22.18.2.2,0,0,1-.21.18A.24.24,0,0,0,22,6.7a5.19,5.19,0,0,1-.72.75,2.73,2.73,0,0,0-.61.65l0,0c.11,0,.15.1.15.14s-.11.14-.22.14a.17.17,0,0,0-.18.15,26.05,26.05,0,0,1-3.06,2.16l-.86.43a8.18,8.18,0,0,0-1,.5,8.14,8.14,0,0,1-1.34.58,3.81,3.81,0,0,0-1,.43c-.14.07-.25.18-.32.18a4.27,4.27,0,0,0-.83.32c-.4.18-.9.36-1.12.44s-.43.14-.43.32.22.5.61.94a5,5,0,0,1,.65.86.16.16,0,0,0,.18.14c.07,0,.22.15.29.33s.14.29.21.29a15.15,15.15,0,0,1,1.44,2.84,7.16,7.16,0,0,0,.47,1.08,3.88,3.88,0,0,1,.36,1c.11.36.58,1,.79,1.62,1.34,3.49,6.2,4.86,6.2,5.61v0c-.08.21-.15.32-.26.32l-.28-.07a.27.27,0,0,0-.26.22c-.07.21-.18.25-.5.25-1.51,0-5.94-2.92-7.63-7.06a4.29,4.29,0,0,0-.25-.57A6.7,6.7,0,0,1,12,20.37a11.47,11.47,0,0,0-.58-1.44,2.42,2.42,0,0,1-.32-.75,10.09,10.09,0,0,0-1-2.56.26.26,0,0,0-.21-.07c-.11,0-.22.11-.25.36S8.82,18.36,8.17,20s-2.27,6.23-2.7,7.92a5.12,5.12,0,0,1-.39,1.19,6.15,6.15,0,0,0-.44.94,1.3,1.3,0,0,1-.64.86,1.78,1.78,0,0,1-.47.14A5.82,5.82,0,0,1,2.84,30.92Zm29.88-3.49c-.65-.22-1.29-1.73-1.51-3.42,0-.58-.14-.79-.25-.79a20.64,20.64,0,0,0-1.73,2.34c-.36.5-.29,1.18-.43,1.18a1.42,1.42,0,0,0-.51.36c-.35.36-.5.4-1.22.4A4,4,0,0,1,24,26.1a2.28,2.28,0,0,1-.62-.72L23,24.77a4.1,4.1,0,0,1-.4-2.13,13.37,13.37,0,0,1,1.48-5.9,27.15,27.15,0,0,1,1.58-2.56,2.16,2.16,0,0,0,.33-.54c.32-.75,1.79-2.12,2.44-2.12l.58,0c.36,0,.32-.14.43-.14a4.4,4.4,0,0,0,1.15.22c.72,0,1.62.39,2.13.39a9.86,9.86,0,0,1,1.72.54c.18,0,1.05-1.94,1.34-2s.5-.51.68-.51.83.47,1,.47.65.58,1,.58h.22a1.45,1.45,0,0,1,1.15,1.44,6.05,6.05,0,0,1-.61,2.12c-.36.68-1.3,3.74-1.37,3.89a20.45,20.45,0,0,1-1.37,3.53,7.14,7.14,0,0,0-.65,2.05c0,.07,0,0,.11.07.29,0,.58-.68,1.77-1.8.5-.5,3.31-4,3.56-4.25s.43-.39.58-.39.25.1.36.1.32-.25.46-.25.11,0,.11.15a.54.54,0,0,1-.14.32c-.4.54-3.28,4.68-3.42,5.15a12.14,12.14,0,0,1-1,1.44c-.54.75-1.08,1-1.08,1.18s-1,1.41-1,1.55a1.84,1.84,0,0,1-1.41,1C34.09,28.36,33,27.5,32.72,27.43Zm-3.49-6.7,1.51-2a3.66,3.66,0,0,1,.54-.72l-.14.18A11.51,11.51,0,0,0,32,17.1l.79-1a2.14,2.14,0,0,0,.5-1.33c0-.47-.25-.72-.43-.72a.94.94,0,0,0-.39.14c-.51.25-2.09,1.05-2.49,1.91a5.45,5.45,0,0,1-1,1.51l-.68,1.19a14.08,14.08,0,0,0-1.19,4.14c0,.14,0,.22.07.22S28.8,21.27,29.23,20.73Zm13.18,7.45a3.75,3.75,0,0,1-2-2.55,7.79,7.79,0,0,0-.4-1.05,2.22,2.22,0,0,1-.25-1.07,9.71,9.71,0,0,1,.47-2.42c.21-.75.47-1.72.54-2.08a18.31,18.31,0,0,1,.61-1.8A8,8,0,0,0,41.87,16a14.64,14.64,0,0,1,1.26-2.91.85.85,0,0,0,.1-.4.79.79,0,0,1,.33-.54A1.8,1.8,0,0,0,44,11V10.8c0-.15.14-.22.36-.22a1.56,1.56,0,0,1,1.08.43s.07,0,.11,0a.26.26,0,0,0,.21-.07.8.8,0,0,1,.36-.15c.11,0,.15.08.15.18s.11.18.25.18a.45.45,0,0,1,.36.19.78.78,0,0,0,.29.28,1.79,1.79,0,0,1,.68.76,2.15,2.15,0,0,1,.47,1.19,4.92,4.92,0,0,1-.65,1.9,15,15,0,0,0-.93,2.31c-.18.54-.4,1.11-.47,1.26a22.73,22.73,0,0,0-.79,2.27,14.27,14.27,0,0,0-.76,3l0,.18.07,0c.14,0,.39-.14.93-.5a6.48,6.48,0,0,1,1-.65,1.17,1.17,0,0,0,.32-.25c.43-.36,5.36-4.18,5.87-4.4a7.72,7.72,0,0,0,.93-.43,1.15,1.15,0,0,1,.4-.11c.22,0,.22.18.22.29v0a.48.48,0,0,1-.15.25C54,19,46.76,24.84,46.76,25a2.1,2.1,0,0,1-.5.69,5,5,0,0,0-.79,1.15c-.36.64-.8,1.11-1,1.11a2,2,0,0,0-.65.25,1.58,1.58,0,0,1-.68.26A2,2,0,0,1,42.41,28.18ZM49.35,10c0-.07-.32-.14-.64-.18-.9-.07-1.41-.58-1.62-1.65a5.46,5.46,0,0,0-.33-1.05,1.38,1.38,0,0,1-.14-.79,4,4,0,0,1,.32-1.69,3.57,3.57,0,0,0,.4-.83,1.75,1.75,0,0,1,.32-.58A1.55,1.55,0,0,0,48,2.41c.07-.43.1-.5.46-.57h.18a.45.45,0,0,1,.47.25,1.27,1.27,0,0,0,.36.32,1.16,1.16,0,0,1,.4.22,1,1,0,0,0,.5.21h.07c.22,0,.8.58,1,1.12.14.29.29.65.39.83a1.08,1.08,0,0,1,.11.54,6.72,6.72,0,0,1-.5,2.09c-.4,1.11-1.12,2.41-1.37,2.41s-.18,0-.18.11-.14.14-.29.14A.37.37,0,0,1,49.35,10ZM54.22,31.5a1.2,1.2,0,0,1-.44-.26L53.24,31a1.21,1.21,0,0,1-.64-.5L52,29.77a1.94,1.94,0,0,1-.4-.58,1.07,1.07,0,0,0-.21-.32,1.89,1.89,0,0,1-.51-1.51l0-.51a22.26,22.26,0,0,1,.79-3.31,2.18,2.18,0,0,0,.15-.5,42.18,42.18,0,0,1,1.33-4.29c.14-.36.32-.93.43-1.26A42,42,0,0,1,55.4,13c.29-.69.62-1.55.72-1.87s.33-.9.47-1.26a2.55,2.55,0,0,0,.18-.72V9a4.33,4.33,0,0,0-1.65-.22c-1.52-.14-1.59-.14-1.66-.4l0-.14c0-.11.11-.14.33-.14s.43,0,.47-.11A3.14,3.14,0,0,1,55,8h.65a9.76,9.76,0,0,0,1.55-.07,2.58,2.58,0,0,0,.5-.86c0-.15.25-.69.47-1.19a11.75,11.75,0,0,0,1-3.71c0-.4.18-.58.44-.58a1.17,1.17,0,0,1,.5.18,1.05,1.05,0,0,0,.54.18.61.61,0,0,1,.4.15c0,.07.32.11.61.11.47,0,.57.07,1.22.68A3.37,3.37,0,0,1,64.15,5v.14A7.5,7.5,0,0,1,63.83,7a8.48,8.48,0,0,0-.22.87l0,.29h4.14a5.3,5.3,0,0,0,1.12.75c.18,0,.36.43.36.86l0,.65c-1.62,0-2.66-.07-3.52-.14a6.26,6.26,0,0,0-.83-.11c-.18,0-.36,0-.69.07l-.36,0c-.18,0-.25,0-.25-.11a.07.07,0,0,0-.07-.07.66.66,0,0,0-.29.11c-.32.18-.57.82-.72,1.83a16.57,16.57,0,0,1-.72,2.16A19.35,19.35,0,0,0,61,16.05a3.9,3.9,0,0,1-.33.76c-.32.61-1.62,3.74-1.62,3.89l-.21.57a2,2,0,0,0-.18.65v0a3.61,3.61,0,0,1-.25.75,5.54,5.54,0,0,0-.33,1,10.84,10.84,0,0,1-.54,1.51,8.91,8.91,0,0,0-.47,1.3.52.52,0,0,1-.14.32,1.5,1.5,0,0,0-.29.69L56.3,29a5.86,5.86,0,0,0-.21,1.22v.07a1.44,1.44,0,0,1-.69,1.26,1.62,1.62,0,0,1-.54.11A1.85,1.85,0,0,1,54.22,31.5Zm13.31-3.68a3.45,3.45,0,0,0-.64-.1.64.64,0,0,1-.58-.33.66.66,0,0,0-.47-.32,4.82,4.82,0,0,1-1.51-1.69c-.07-.18-.18-.33-.25-.33s-.15-.1-.15-.25,0-.25-.07-.25a7.86,7.86,0,0,1-.65-2.34,10.33,10.33,0,0,1-.14-1.87,9.55,9.55,0,0,1,.18-2,30.32,30.32,0,0,1,1.4-3.6,2.33,2.33,0,0,0,.29-.79.94.94,0,0,1,.25-.4A6.1,6.1,0,0,0,66.13,12a2.88,2.88,0,0,1,.43-.69.36.36,0,0,0,.18-.29c0-.07,0-.1-.11-.1h-.14a.33.33,0,0,1-.25-.11.24.24,0,0,1-.07-.18.59.59,0,0,1,.18-.4A2.65,2.65,0,0,1,67,9.61c.18-.11.36-.29.36-.36s.18-.25.4-.32a4.84,4.84,0,0,1,2-.47,3.34,3.34,0,0,1,1.47.32,4.11,4.11,0,0,0,.83.29,7,7,0,0,1,2.12,1.19c1,.9,1.34,1.29,1.48,1.83a3.29,3.29,0,0,0,.25.69l.4.9a5.2,5.2,0,0,1,.28,2,2.87,2.87,0,0,1-.35,1.88A1.63,1.63,0,0,0,76,18l0,0,0,0,.21-.1a8,8,0,0,1-1.19,2.23,10.11,10.11,0,0,0-1.33,2.19,8.05,8.05,0,0,1-.9,1.16,3.25,3.25,0,0,0-.75,1.07,4.75,4.75,0,0,1-.83,1.05,3.24,3.24,0,0,0-.79.93c0,.29-.22.54-.9,1a2.52,2.52,0,0,1-1.34.43A2.15,2.15,0,0,1,67.53,27.82Zm2.16-5.14a9.33,9.33,0,0,0,1-1.19,2.88,2.88,0,0,1,.65-.76,6.18,6.18,0,0,0,.93-1.29,2.4,2.4,0,0,1,.43-.65,3.34,3.34,0,0,0,.51-.76,6.33,6.33,0,0,1,.54-.75.23.23,0,0,0,.11-.22,1.92,1.92,0,0,1,.32-.57c.36-.4.36-.47.36-1.62s-.07-1.26-.29-1.52a3.51,3.51,0,0,1-.54-.82,1.68,1.68,0,0,0-1.08-.87c-.07,0-.14,0-.18.07a.93.93,0,0,0-.11.47,2.94,2.94,0,0,1-.82,1.66,9.64,9.64,0,0,0-1,1.73c-.33.68-.65,1.4-.76,1.58a2.33,2.33,0,0,0-.18.9,1.21,1.21,0,0,1-.11.65,20,20,0,0,0-1.22,2.88,6.22,6.22,0,0,0-.22,1.73c0,.36,0,.61.11.64h.07C68.43,24,68.69,23.72,69.69,22.68ZM89.46,31c-.9-.22-2.16-1.19-2.16-1.66V29.3c0-.14,0-.29-.15-.32A.2.2,0,0,1,87,28.8v0a1.14,1.14,0,0,0-.21-.5,1.33,1.33,0,0,1-.25-.8A2.25,2.25,0,0,1,87,26.21,24.41,24.41,0,0,0,88.85,22a9.92,9.92,0,0,1,.5-1.15,1.21,1.21,0,0,0,.22-.47,4.73,4.73,0,0,1,.32-1c.18-.36.68-1.62,1.15-2.85s1-2.59,1.19-2.95a10.79,10.79,0,0,0,.5-1.19c.18-.5.87-2.16,1.44-3.63L95,7.09A32.93,32.93,0,0,0,96.3,3.82a3.56,3.56,0,0,0,.14-.54v0l-.18,0c-.47,0-1.62.11-3.24.26a5.28,5.28,0,0,0-1.22.21l-.18.07c-.07,0-.07-.07-.07-.14V3.31c0-.11,0-.14-.11-.14h-.07a.54.54,0,0,0-.36.14.27.27,0,0,1-.18.07l-.11,0a3.4,3.4,0,0,0-.54-.18.37.37,0,0,1-.25-.33.45.45,0,0,1,.28-.43,13.8,13.8,0,0,1,5-1.37,53.65,53.65,0,0,1,5.37-.28l.86,0a35.62,35.62,0,0,1,3.67.54,9.63,9.63,0,0,0,1.33.22h.29a1.36,1.36,0,0,1,.4,0,4.72,4.72,0,0,0,1.37.11c1.72,0,3,.33,3,.65v0s.11.1.26.14a.42.42,0,0,1,.25.36.41.41,0,0,0,.18.32.2.2,0,0,1,.14.22.69.69,0,0,1-.32.5,8.5,8.5,0,0,1-2.41.26A2.61,2.61,0,0,1,109,4.1c-.33-.1-1.62-.28-2.27-.36a4.56,4.56,0,0,1-.83-.1,3.85,3.85,0,0,0-1.15-.22c-.5-.07-1-.14-1.15-.18a8.14,8.14,0,0,0-1.73-.18l-.32,0,0,.68.07.47a1.32,1.32,0,0,1-.25.68,13,13,0,0,0-.54,1.66A19.57,19.57,0,0,1,100,8.93l-1.4,3.7-1,2.7c-.14.29-.46,1.12-.72,1.84l-2.59,7L94,25c-.14.4-1.18,2.74-1.51,3.31s-.68,1.55-.86,2a1.71,1.71,0,0,1-1.26.83A5.15,5.15,0,0,1,89.46,31Zm17.92-3.6c-.64-.22-1.29-1.73-1.51-3.42,0-.58-.14-.79-.25-.79a21.94,21.94,0,0,0-1.73,2.34c-.36.5-.29,1.18-.43,1.18a1.33,1.33,0,0,0-.5.36c-.36.36-.51.4-1.23.4a4,4,0,0,1-3.09-1.4,2.24,2.24,0,0,1-.61-.72l-.4-.61a4.1,4.1,0,0,1-.4-2.13,13.37,13.37,0,0,1,1.48-5.9,27.15,27.15,0,0,1,1.58-2.56,1.9,1.9,0,0,0,.33-.54c.32-.75,1.8-2.12,2.44-2.12l.58,0c.36,0,.32-.14.43-.14a4.51,4.51,0,0,0,1.15.22c.72,0,1.62.39,2.13.39a10.32,10.32,0,0,1,1.73.54c.18,0,1-1.94,1.33-2s.5-.51.68-.51.83.47,1,.47.64.58,1,.58h.22a1.45,1.45,0,0,1,1.15,1.44,6.05,6.05,0,0,1-.61,2.12c-.36.68-1.3,3.74-1.37,3.89a19.59,19.59,0,0,1-1.37,3.53,7.13,7.13,0,0,0-.64,2.05c0,.07,0,0,.1.07.29,0,.58-.68,1.77-1.8.5-.5,3.31-4,3.56-4.25s.43-.39.58-.39.25.1.36.1.32-.25.47-.25.1,0,.1.15a.54.54,0,0,1-.14.32c-.4.54-3.28,4.68-3.42,5.15a12.14,12.14,0,0,1-1,1.44c-.54.75-1.08,1-1.08,1.18s-1,1.41-1,1.55a1.84,1.84,0,0,1-1.4,1C108.75,28.36,107.67,27.5,107.38,27.43Zm-3.49-6.7,1.51-2a3.66,3.66,0,0,1,.54-.72l-.14.18a11.51,11.51,0,0,0,.9-1.11l.79-1a2.09,2.09,0,0,0,.51-1.33c0-.47-.26-.72-.44-.72a.94.94,0,0,0-.39.14c-.51.25-2.09,1.05-2.48,1.91a5.19,5.19,0,0,1-1,1.51L103,18.79a14.4,14.4,0,0,0-1.19,4.14c0,.14,0,.22.07.22S103.46,21.27,103.89,20.73Zm23.33,8.75a.44.44,0,0,0-.32-.11,5.5,5.5,0,0,1-2-2.12,1.34,1.34,0,0,0-.22-.36,27.29,27.29,0,0,1-1.94-3.78,12.53,12.53,0,0,0-1.19-2.52c-.11-.11-.18-.14-.25-.14s-.18.07-.18.21a3.2,3.2,0,0,1-.36.83,3.65,3.65,0,0,0-.4.79,9.34,9.34,0,0,1-.9,2,9.05,9.05,0,0,0-.54,1.08c-.1.32-.25.57-.32.57s-.18.15-.25.33-.18.32-.29.32-.32.18-.47.43c-.25.43-.39.51-1.54.51-.15,0-.22.07-.22.25s-.07.39-.14.39-.15-.07-.26-.21-.18-.18-.25-.18-.21.11-.21.32-.08.29-.18.29-.26-.11-.47-.29a1.09,1.09,0,0,1-.36-1v-.83a13.37,13.37,0,0,1,.25-3.09A39.14,39.14,0,0,1,115.45,19a1.53,1.53,0,0,0,.14-.43A42.71,42.71,0,0,1,117.21,14a11.67,11.67,0,0,0,.87-2.31.85.85,0,0,1,.11-.36,3.05,3.05,0,0,0,.32-.82c.14-.37.29-.8.32-.94a8,8,0,0,0,.36-.94L121,3.46a1.64,1.64,0,0,1,.32-.69.86.86,0,0,0,.25-.54c0-.14,0-.21.08-.21l.21.1a.86.86,0,0,0,.4.11h.18a.42.42,0,0,1,.36.22A4.53,4.53,0,0,0,124,3,2.85,2.85,0,0,1,126,4.61c.29.47.4.65.4.86a1.88,1.88,0,0,1-.08.43c-.1.33-.21.62-.28.62a.79.79,0,0,0-.11.5,5.16,5.16,0,0,1-.25,1.19,5.36,5.36,0,0,0-.26,1,.52.52,0,0,1-.1.33,3.57,3.57,0,0,0-.33,1.08,9.76,9.76,0,0,1-.32,1,12.08,12.08,0,0,0-.54,1.54,7.19,7.19,0,0,1-.61,1.48c-.08,0-.11.07-.11.22a2.65,2.65,0,0,1-.25.72,2.22,2.22,0,0,0-.26.68.13.13,0,0,0,.11.14c.15,0,.4-.18.76-.46l.9-.83a1.16,1.16,0,0,1,.57-.36c.22,0,.33-.07.33-.25s.18-.36.47-.54,1.08-.94,1.83-1.66C129,11.16,129.24,11,129.6,11s.54.07.54.25l-.08.22a2.59,2.59,0,0,0-.21.72c0,.25-.11.46-.18.46a4.11,4.11,0,0,0-.58.65,10.32,10.32,0,0,1-1.19,1.48l-.86,1a8.72,8.72,0,0,1-2.27,2.12c-.21.11-.39.22-.39.29s-.08.11-.15.11a.34.34,0,0,1-.29-.18.25.25,0,0,0-.21-.18c-.07,0-.11,0-.11.1s.18.36.83,1a7.44,7.44,0,0,1,.75,1c.18.32.54.76.72,1a7.83,7.83,0,0,1,1.3,2.73,16.87,16.87,0,0,0,1.33,3.1,5.06,5.06,0,0,1,.61,1.87.71.71,0,0,1-.5.72,3.44,3.44,0,0,1-.86.14A1,1,0,0,1,127.22,29.48Zm5-.47-.76-.25a2.09,2.09,0,0,1-.75-.36,6.7,6.7,0,0,1-1.55-2.09,10.56,10.56,0,0,1-.54-3.7,14.43,14.43,0,0,1,.5-3.93A8.81,8.81,0,0,1,130,17c0-.07.21-.36.36-.68.57-1.15,3.67-4.61,4.17-4.64a1.39,1.39,0,0,0,.51-.22,1.14,1.14,0,0,1,.61-.25A.52.52,0,0,0,136,11c0-.07.29-.1.61-.1a9.52,9.52,0,0,1,1.91.21,5,5,0,0,1,2,1.44,3.22,3.22,0,0,1,.33,1.55v.54a2.39,2.39,0,0,1-.18,1.08,10.09,10.09,0,0,1-2.2,2.77,2.4,2.4,0,0,0-.57.4.81.81,0,0,1-.44.29,1.54,1.54,0,0,0-.5.28,8.3,8.3,0,0,1-1.73.94,6.74,6.74,0,0,1-.86.22c-.54.1-.83.43-1.23,1.51a9.59,9.59,0,0,0-.61,3.17v.46a5.65,5.65,0,0,0,.22,1.33.57.57,0,0,0,.47.26c.07,0,.14,0,.18-.08a6.56,6.56,0,0,1,.75-.46,3.11,3.11,0,0,0,1-.65.79.79,0,0,1,.4-.29,4.11,4.11,0,0,0,.83-.65,6.14,6.14,0,0,1,1-.79c.22-.11,4.75-4.25,5.58-5A11.22,11.22,0,0,1,144.61,18a1.19,1.19,0,0,1,.43.25l.25.26a6.94,6.94,0,0,1-1.11,1c-.22.15-.72,1.08-1.3,1.66-.83.83-2.7,3.1-4,4.18-.29.25-1.15,1-2,1.79a5.24,5.24,0,0,1-1.23,1.08.68.68,0,0,0-.32.36c-.11.22-.25.29-.83.36a10.84,10.84,0,0,1-1.8.18A1.24,1.24,0,0,1,132.19,29Zm4.39-11.66A6.33,6.33,0,0,0,138.45,15c.07-.18.15-.32.18-.32s.33-.76.33-1.08V13.5a.3.3,0,0,0-.29-.22.35.35,0,0,0-.33.22,6.58,6.58,0,0,1-1.26,1.69,4.42,4.42,0,0,0-.79,1.3,6.67,6.67,0,0,1-.68,1.15.69.69,0,0,0-.29.54.13.13,0,0,0,.11.14A6,6,0,0,0,136.58,17.35Zm20.88,12.24a1.35,1.35,0,0,1-.58-.22,1.71,1.71,0,0,0-.39-.21,4.8,4.8,0,0,1-2.67-3.53c-.07-.43-.14-.68-.25-.68s-.25.21-.25.39a.23.23,0,0,0,.11.22l0,.07c0,.07-.07.21-.28.39a2.46,2.46,0,0,0-.54.87,3.16,3.16,0,0,1-1.7,1.51.85.85,0,0,0-.43.25c0,.11-.11.15-.36.15l-.47,0a5.65,5.65,0,0,1-1.18-.25,3.74,3.74,0,0,0-.76-.15c-.22,0-.57-.25-1.08-.72a4.68,4.68,0,0,0-.93-.72c-.26,0-1.23-1.11-1.62-1.87a5.9,5.9,0,0,1-.62-1.94,13,13,0,0,1-.18-1.69,8.73,8.73,0,0,1,.54-2.59,2.56,2.56,0,0,1,.4-.9,1.15,1.15,0,0,0,.25-.58,13.57,13.57,0,0,1,.61-1.66,12.78,12.78,0,0,0,.58-1.76,5.77,5.77,0,0,1,.39-1.12,8.27,8.27,0,0,0,.51-1.11,1.84,1.84,0,0,1,.25-.58c.07,0,.14-.11.18-.21a.39.39,0,0,1,.43-.29,1.42,1.42,0,0,1,.51.11,2.38,2.38,0,0,0,.54.14l.25,0a1.31,1.31,0,0,1,.86.44l.11.11s.07-.08.14-.15a.11.11,0,0,1,.11-.07.15.15,0,0,1,.15.07.85.85,0,0,0,.43.15c.36,0,.79.46,1.33,1.36a1.64,1.64,0,0,1,.32.79,1.13,1.13,0,0,1-.07.44,22.73,22.73,0,0,0-.72,2.84,10.41,10.41,0,0,1-.9,3,4.11,4.11,0,0,0-.36.86l-.32,1-.47,1.69a9.14,9.14,0,0,0-.22,2.09l0,.43c0,.14.11.25.18.25a11.51,11.51,0,0,0,1.91-1.76c.29-.36.72-.79.93-1,.47-.47.65-.72.65-.79a3.92,3.92,0,0,1,.58-.76,5.56,5.56,0,0,0,1.22-2.26,2.1,2.1,0,0,1,.4-.9s.07-.11.07-.22a7.89,7.89,0,0,1,.61-1.33l1.41-2.81a14.13,14.13,0,0,1,.68-1.33c.11-.15.22-.36.32-.47a3.09,3.09,0,0,0,.33-.43c.14-.29.47-.4,1-.4a5.51,5.51,0,0,1,2.27.61c1.08.47,1.19.54,1.51,1.12a1.59,1.59,0,0,1,.18.76v.25a3.11,3.11,0,0,1-.18.65,2.14,2.14,0,0,0-.22.64,4.17,4.17,0,0,1-.39,1.16,3.29,3.29,0,0,0-.29.79,1.31,1.31,0,0,1-.22.54,1.44,1.44,0,0,0-.18.5,6.15,6.15,0,0,1-.61,1.41,12.21,12.21,0,0,0-1.33,3.2,14.08,14.08,0,0,1-.61,1.66A6.81,6.81,0,0,0,159,27c0,.22,0,.4.08.4a4.58,4.58,0,0,0,1.69-1.51,2.82,2.82,0,0,1,.54-.65,1.18,1.18,0,0,0,.32-.47.32.32,0,0,1,.18-.25c.11,0,.22-.14.22-.22a.42.42,0,0,1,.25-.32c.14-.07.25-.18.25-.29a.25.25,0,0,1,.18-.21c.11,0,2.59-4.07,2.7-4.36.36-.76.86-1.26,1.22-1.26.11,0,.18,0,.26.18a.32.32,0,0,0,.25.18c.11,0,.18.07.18.25A33.14,33.14,0,0,1,164,24.77a.63.63,0,0,0-.21.43c0,.18-.15.32-.22.32s-.18.15-.25.32a7.21,7.21,0,0,1-.47.83,4.19,4.19,0,0,0-.39.61,3.46,3.46,0,0,1-1.3,1.08c-.11,0-.21,0-.21.08s-.15.18-.29.25a.81.81,0,0,0-.47.5.66.66,0,0,1-.54.51l-.68,0A6.15,6.15,0,0,1,157.46,29.59Zm12.35-.36a2.52,2.52,0,0,1-1.05-.29,3.3,3.3,0,0,1-.93-.65.44.44,0,0,0-.33-.25c-.21,0-.75-.83-1.58-2.45a6.9,6.9,0,0,1-.76-2.19c0-.33-.07-.72-.07-1.12a10.75,10.75,0,0,1,.72-3.92c1.12-2.41,1.3-2.88,1.51-3.06a.55.55,0,0,0,.22-.36.79.79,0,0,1,.18-.25,2.64,2.64,0,0,0,.4-.58,9.15,9.15,0,0,1,1.33-1.55c.86-.86,1.08-1.08,1.33-1.08l.4.07c.07,0,.1,0,.1-.07l-.07-.21c0-.22.26-.33.76-.33l.57,0a9,9,0,0,1,2.85.57.49.49,0,0,0,.36.11c.11,0,.36.22.61.43a2.2,2.2,0,0,1,.54,1.19,10.07,10.07,0,0,1,.11,1.55,2.7,2.7,0,0,1-.11,1,2.62,2.62,0,0,0-.47.54c-.18.21-.36.39-.43.39h0a3.49,3.49,0,0,1-.1-1c0-.93-.29-2-.58-2a1,1,0,0,0-.43.4,6,6,0,0,1-.61.68.89.89,0,0,0-.26.4,3.75,3.75,0,0,1-.43.68A3,3,0,0,0,173,17a7.67,7.67,0,0,1-1.08,2.08,3.29,3.29,0,0,0-.69,1.37c0,.07,0,.15-.11.15a11.64,11.64,0,0,0-.61,1.15,5.46,5.46,0,0,0-.68,2.34c-.07.83-.11,1.4-.11,1.8s.07.75.18.75c.33,0,.72-.25,1.4-.9a10.57,10.57,0,0,1,2-1.54,2.65,2.65,0,0,0,.58-.44,4.41,4.41,0,0,1,1-.82c.72-.47,4.61-3.53,5-3.89a1,1,0,0,1,.51-.25.13.13,0,0,0,.14-.11c0-.07.18-.22.36-.33a.37.37,0,0,1,.22-.07l.18,0h.14c.29,0,.43.14.43.29a.36.36,0,0,1-.18.28c-.14.08-.79.58-.79.69a1.09,1.09,0,0,1-.36.43c-.21.14-.39.32-.39.4a46.25,46.25,0,0,1-4,4A19.71,19.71,0,0,0,174.56,26a4,4,0,0,1-.65.69c0,.14-.32.21-.5.39-.72.8-.94.47-1,.8-.18.72-1,1.18-2.3,1.33Zm18.9.39c-.33-.54-.33-1.22-.43-4.06,0-1.77.82-3.42,2.55-7.53v0s-.07-.07-.11-.07c-.21,0-1.36,1.4-1.44,1.4-.28,0-.64.47-1.44,1.22a3.59,3.59,0,0,0-.93,1c-.79,1.15-2.38,2.62-2.81,3.7-.4.83-.65.72-.79,1.48L183,27.86c-.14.58-.29,1-2.16,1.19a1.6,1.6,0,0,1-1.15-.51,2.07,2.07,0,0,1-1-2.08l0-.79c0-1.12.43-2,1.11-4.14a16.18,16.18,0,0,1,1.15-3.32v0c0-.36,1.91-4.83,1.91-4.93s.79-1.59,1-2.13.83-1.69,1-2.16a11.4,11.4,0,0,1,.9-2.05c.1-.5.36-.68.36-1.4l0-1h.54c.83,0,1.62.9,2,.9S190,6.7,190,8a8.67,8.67,0,0,1-.79,3.1,13,13,0,0,0-.65,2.26,28.93,28.93,0,0,1-1.44,3.71,23.32,23.32,0,0,0-.94,2.34,4.57,4.57,0,0,0-.47,1.33c0,.08,0,.11,0,.11s.61-.75.86-.75.47-.26.76-.54l2.81-2.7c.57-.58.79-.51,1-.87a1.12,1.12,0,0,1,.83-.43c.21,0,.29.25.65.25.18,0,.32.07.32.18s.47.51.79.51H194c.72,0,1.91,1.72,1.91,2.62s-.75,1.8-.75,2.06a8.72,8.72,0,0,1-.76,2c-.25.39-1.08,2.45-1.37,2.8a2.27,2.27,0,0,0-.29.51v0c0,.08-.21.29-.39.51-1,.79-1.33,1.22-1.41,1.47-.1.4-.61.9-.83.9H190c-.47,0-.54,1.08-.83,1.08S189,30.2,188.71,29.62Zm9.94-1.44a3.79,3.79,0,0,1-2-2.55,6.35,6.35,0,0,0-.39-1.05,2.22,2.22,0,0,1-.25-1.07,10,10,0,0,1,.46-2.42c.22-.75.47-1.72.55-2.08a16,16,0,0,1,.61-1.8A7.53,7.53,0,0,0,198.1,16a14.68,14.68,0,0,1,1.27-2.91.85.85,0,0,0,.1-.4.79.79,0,0,1,.33-.54,1.8,1.8,0,0,0,.43-1.15V10.8c0-.15.14-.22.36-.22a1.56,1.56,0,0,1,1.08.43s.07,0,.11,0A.26.26,0,0,0,202,11a.8.8,0,0,1,.36-.15c.11,0,.15.08.15.18s.1.18.25.18a.45.45,0,0,1,.36.19.78.78,0,0,0,.29.28,1.85,1.85,0,0,1,.68.76,2.15,2.15,0,0,1,.47,1.19,4.92,4.92,0,0,1-.65,1.9,16.3,16.3,0,0,0-.94,2.31c-.18.54-.39,1.11-.46,1.26a22,22,0,0,0-.8,2.27,14.69,14.69,0,0,0-.75,3l0,.18.08,0c.14,0,.39-.14.93-.5a7.3,7.3,0,0,1,1-.65,1,1,0,0,0,.33-.25c.43-.36,5.36-4.18,5.86-4.4a7.19,7.19,0,0,0,.94-.43,1.15,1.15,0,0,1,.4-.11c.21,0,.21.18.21.29v0a.46.46,0,0,1-.14.25C210.2,19,203,24.84,203,25a2.28,2.28,0,0,1-.5.69,5.44,5.44,0,0,0-.8,1.15c-.36.64-.79,1.11-1,1.11a2,2,0,0,0-.65.25,1.58,1.58,0,0,1-.68.26A2,2,0,0,1,198.65,28.18ZM205.59,10c0-.07-.32-.14-.65-.18-.9-.07-1.4-.58-1.62-1.65A5,5,0,0,0,203,7.09a1.38,1.38,0,0,1-.14-.79,3.86,3.86,0,0,1,.32-1.69,3.57,3.57,0,0,0,.4-.83,1.75,1.75,0,0,1,.32-.58,1.64,1.64,0,0,0,.33-.79c.07-.43.1-.5.46-.57h.18a.45.45,0,0,1,.47.25,1,1,0,0,0,.36.32,1.16,1.16,0,0,1,.4.22,1,1,0,0,0,.5.21h.07c.22,0,.79.58,1.05,1.12.14.29.28.65.39.83a1.2,1.2,0,0,1,.11.54,6.72,6.72,0,0,1-.5,2.09c-.4,1.11-1.12,2.41-1.37,2.41s-.18,0-.18.11-.15.14-.29.14A.37.37,0,0,1,205.59,10Z"/></g></g></svg>